<?xml version="1.0" encoding="UTF-8" standalone="no"?>
<!DOCTYPE svg PUBLIC "-//W3C//DTD SVG 1.1//EN"
 "http://www.w3.org/Graphics/SVG/1.1/DTD/svg11.dtd">
<!-- Generated by graphviz version 2.38.0 (20140413.2041)
 -->
<!-- Title: controllers_diagram Pages: 1 -->
<svg width="552pt" height="508pt"
 viewBox="0.00 0.00 552.00 507.50" xmlns="http://www.w3.org/2000/svg" xmlns:xlink="http://www.w3.org/1999/xlink">
<g id="graph0" class="graph" transform="scale(1 1) rotate(0) translate(199 308.5)">
<title>controllers_diagram</title>
<polygon fill="none" stroke="none" points="-199,199 -199,-308.5 353,-308.5 353,199 -199,199"/>
<!-- _diagram_info -->
<g id="node1" class="node"><title>_diagram_info</title>
<text text-anchor="start" x="143" y="71.4" font-family="Times,serif" font-size="13.00">Controllers diagram</text>
<text text-anchor="start" x="143" y="85.4" font-family="Times,serif" font-size="13.00">Date: Apr 26 2017 &#45; 09:19</text>
<text text-anchor="start" x="143" y="99.4" font-family="Times,serif" font-size="13.00">Migration version: 20170426060149</text>
<text text-anchor="start" x="143" y="113.4" font-family="Times,serif" font-size="13.00">Generated by RailRoady 1.5.2</text>
<text text-anchor="start" x="143" y="127.4" font-family="Times,serif" font-size="13.00">http://railroady.prestonlee.com</text>
</g>
<!-- VideosController -->
<g id="node2" class="node"><title>VideosController</title>
<path fill="none" stroke="black" d="M-48,-76C-48,-76 38,-76 38,-76 44,-76 50,-82 50,-88 50,-88 50,-202 50,-202 50,-208 44,-214 38,-214 38,-214 -48,-214 -48,-214 -54,-214 -60,-208 -60,-202 -60,-202 -60,-88 -60,-88 -60,-82 -54,-76 -48,-76"/>
<text text-anchor="middle" x="-5" y="-198.8" font-family="Times,serif" font-size="14.00">VideosController</text>
<polyline fill="none" stroke="black" points="-60,-191 50,-191 "/>
<text text-anchor="start" x="-52" y="-175.8" font-family="Times,serif" font-size="14.00">index</text>
<text text-anchor="start" x="-52" y="-160.8" font-family="Times,serif" font-size="14.00">more</text>
<text text-anchor="start" x="-52" y="-145.8" font-family="Times,serif" font-size="14.00">show</text>
<polyline fill="none" stroke="black" points="-60,-138 50,-138 "/>
<polyline fill="none" stroke="black" points="-60,-114 50,-114 "/>
<text text-anchor="start" x="-52" y="-98.8" font-family="Times,serif" font-size="14.00">_layout</text>
<text text-anchor="start" x="-52" y="-83.8" font-family="Times,serif" font-size="14.00">set_video</text>
</g>
<!-- Users::OmniauthCallbacksController -->
<g id="node3" class="node"><title>Users::OmniauthCallbacksController</title>
<path fill="none" stroke="black" d="M-108,74.5C-108,74.5 86,74.5 86,74.5 92,74.5 98,68.5 98,62.5 98,62.5 98,-36.5 98,-36.5 98,-42.5 92,-48.5 86,-48.5 86,-48.5 -108,-48.5 -108,-48.5 -114,-48.5 -120,-42.5 -120,-36.5 -120,-36.5 -120,62.5 -120,62.5 -120,68.5 -114,74.5 -108,74.5"/>
<text text-anchor="middle" x="-11" y="-33.3" font-family="Times,serif" font-size="14.00">Users::OmniauthCallbacksController</text>
<polyline fill="none" stroke="black" points="-120,-25.5 98,-25.5 "/>
<text text-anchor="start" x="-112" y="-10.3" font-family="Times,serif" font-size="14.00">facebook</text>
<text text-anchor="start" x="-112" y="4.7" font-family="Times,serif" font-size="14.00">google_oauth2</text>
<text text-anchor="start" x="-112" y="19.7" font-family="Times,serif" font-size="14.00">vkontakte</text>
<polyline fill="none" stroke="black" points="-120,27.5 98,27.5 "/>
<polyline fill="none" stroke="black" points="-120,51.5 98,51.5 "/>
<text text-anchor="start" x="-112" y="66.7" font-family="Times,serif" font-size="14.00">_layout</text>
</g>
<!-- ArticlesController -->
<g id="node4" class="node"><title>ArticlesController</title>
<path fill="none" stroke="black" d="M221.5,29C221.5,29 312.5,29 312.5,29 318.5,29 324.5,23 324.5,17 324.5,17 324.5,-97 324.5,-97 324.5,-103 318.5,-109 312.5,-109 312.5,-109 221.5,-109 221.5,-109 215.5,-109 209.5,-103 209.5,-97 209.5,-97 209.5,17 209.5,17 209.5,23 215.5,29 221.5,29"/>
<text text-anchor="middle" x="267" y="-93.8" font-family="Times,serif" font-size="14.00">ArticlesController</text>
<polyline fill="none" stroke="black" points="209.5,-86 324.5,-86 "/>
<text text-anchor="start" x="217.5" y="-70.8" font-family="Times,serif" font-size="14.00">index</text>
<text text-anchor="start" x="217.5" y="-55.8" font-family="Times,serif" font-size="14.00">more</text>
<text text-anchor="start" x="217.5" y="-40.8" font-family="Times,serif" font-size="14.00">show</text>
<polyline fill="none" stroke="black" points="209.5,-33 324.5,-33 "/>
<polyline fill="none" stroke="black" points="209.5,-9 324.5,-9 "/>
<text text-anchor="start" x="217.5" y="6.2" font-family="Times,serif" font-size="14.00">_layout</text>
<text text-anchor="start" x="217.5" y="21.2" font-family="Times,serif" font-size="14.00">set_article</text>
</g>
<!-- SchedulesController -->
<g id="node5" class="node"><title>SchedulesController</title>
<path fill="none" stroke="black" d="M-17.5,194.5C-17.5,194.5 85.5,194.5 85.5,194.5 91.5,194.5 97.5,188.5 97.5,182.5 97.5,182.5 97.5,113.5 97.5,113.5 97.5,107.5 91.5,101.5 85.5,101.5 85.5,101.5 -17.5,101.5 -17.5,101.5 -23.5,101.5 -29.5,107.5 -29.5,113.5 -29.5,113.5 -29.5,182.5 -29.5,182.5 -29.5,188.5 -23.5,194.5 -17.5,194.5"/>
<text text-anchor="middle" x="34" y="116.7" font-family="Times,serif" font-size="14.00">SchedulesController</text>
<polyline fill="none" stroke="black" points="-29.5,124.5 97.5,124.5 "/>
<text text-anchor="start" x="-21.5" y="139.7" font-family="Times,serif" font-size="14.00">index</text>
<polyline fill="none" stroke="black" points="-29.5,147.5 97.5,147.5 "/>
<polyline fill="none" stroke="black" points="-29.5,171.5 97.5,171.5 "/>
<text text-anchor="start" x="-21.5" y="186.7" font-family="Times,serif" font-size="14.00">_layout</text>
</g>
<!-- AboutController -->
<g id="node6" class="node"><title>AboutController</title>
<path fill="none" stroke="black" d="M87,-76C87,-76 169,-76 169,-76 175,-76 181,-82 181,-88 181,-88 181,-292 181,-292 181,-298 175,-304 169,-304 169,-304 87,-304 87,-304 81,-304 75,-298 75,-292 75,-292 75,-88 75,-88 75,-82 81,-76 87,-76"/>
<text text-anchor="middle" x="128" y="-288.8" font-family="Times,serif" font-size="14.00">AboutController</text>
<polyline fill="none" stroke="black" points="75,-281 181,-281 "/>
<text text-anchor="start" x="83" y="-265.8" font-family="Times,serif" font-size="14.00">achievements</text>
<text text-anchor="start" x="83" y="-250.8" font-family="Times,serif" font-size="14.00">anthem</text>
<text text-anchor="start" x="83" y="-235.8" font-family="Times,serif" font-size="14.00">coaching</text>
<text text-anchor="start" x="83" y="-220.8" font-family="Times,serif" font-size="14.00">emblem</text>
<text text-anchor="start" x="83" y="-205.8" font-family="Times,serif" font-size="14.00">graduates</text>
<text text-anchor="start" x="83" y="-190.8" font-family="Times,serif" font-size="14.00">history</text>
<text text-anchor="start" x="83" y="-175.8" font-family="Times,serif" font-size="14.00">memo</text>
<text text-anchor="start" x="83" y="-160.8" font-family="Times,serif" font-size="14.00">mission</text>
<text text-anchor="start" x="83" y="-145.8" font-family="Times,serif" font-size="14.00">sponsors</text>
<text text-anchor="start" x="83" y="-130.8" font-family="Times,serif" font-size="14.00">tips</text>
<polyline fill="none" stroke="black" points="75,-123 181,-123 "/>
<polyline fill="none" stroke="black" points="75,-99 181,-99 "/>
<text text-anchor="start" x="83" y="-83.8" font-family="Times,serif" font-size="14.00">_layout</text>
</g>
<!-- TeamsController -->
<g id="node7" class="node"><title>TeamsController</title>
<path fill="none" stroke="black" d="M-182.5,-196C-182.5,-196 -97.5,-196 -97.5,-196 -91.5,-196 -85.5,-202 -85.5,-208 -85.5,-208 -85.5,-292 -85.5,-292 -85.5,-298 -91.5,-304 -97.5,-304 -97.5,-304 -182.5,-304 -182.5,-304 -188.5,-304 -194.5,-298 -194.5,-292 -194.5,-292 -194.5,-208 -194.5,-208 -194.5,-202 -188.5,-196 -182.5,-196"/>
<text text-anchor="middle" x="-140" y="-288.8" font-family="Times,serif" font-size="14.00">TeamsController</text>
<polyline fill="none" stroke="black" points="-194.5,-281 -85.5,-281 "/>
<text text-anchor="start" x="-186.5" y="-265.8" font-family="Times,serif" font-size="14.00">show</text>
<polyline fill="none" stroke="black" points="-194.5,-258 -85.5,-258 "/>
<polyline fill="none" stroke="black" points="-194.5,-234 -85.5,-234 "/>
<text text-anchor="start" x="-186.5" y="-218.8" font-family="Times,serif" font-size="14.00">_layout</text>
<text text-anchor="start" x="-186.5" y="-203.8" font-family="Times,serif" font-size="14.00">set_team</text>
</g>
<!-- MainController -->
<g id="node8" class="node"><title>MainController</title>
<path fill="none" stroke="black" d="M-182.5,-75.5C-182.5,-75.5 -105.5,-75.5 -105.5,-75.5 -99.5,-75.5 -93.5,-81.5 -93.5,-87.5 -93.5,-87.5 -93.5,-156.5 -93.5,-156.5 -93.5,-162.5 -99.5,-168.5 -105.5,-168.5 -105.5,-168.5 -182.5,-168.5 -182.5,-168.5 -188.5,-168.5 -194.5,-162.5 -194.5,-156.5 -194.5,-156.5 -194.5,-87.5 -194.5,-87.5 -194.5,-81.5 -188.5,-75.5 -182.5,-75.5"/>
<text text-anchor="middle" x="-144" y="-153.3" font-family="Times,serif" font-size="14.00">MainController</text>
<polyline fill="none" stroke="black" points="-194.5,-145.5 -93.5,-145.5 "/>
<text text-anchor="start" x="-186.5" y="-130.3" font-family="Times,serif" font-size="14.00">index</text>
<polyline fill="none" stroke="black" points="-194.5,-122.5 -93.5,-122.5 "/>
<polyline fill="none" stroke="black" points="-194.5,-98.5 -93.5,-98.5 "/>
<text text-anchor="start" x="-186.5" y="-83.3" font-family="Times,serif" font-size="14.00">_layout</text>
</g>
<!-- AlbumsController -->
<g id="node9" class="node"><title>AlbumsController</title>
<path fill="none" stroke="black" d="M222,-136C222,-136 314,-136 314,-136 320,-136 326,-142 326,-148 326,-148 326,-262 326,-262 326,-268 320,-274 314,-274 314,-274 222,-274 222,-274 216,-274 210,-268 210,-262 210,-262 210,-148 210,-148 210,-142 216,-136 222,-136"/>
<text text-anchor="middle" x="268" y="-258.8" font-family="Times,serif" font-size="14.00">AlbumsController</text>
<polyline fill="none" stroke="black" points="210,-251 326,-251 "/>
<text text-anchor="start" x="218" y="-235.8" font-family="Times,serif" font-size="14.00">index</text>
<text text-anchor="start" x="218" y="-220.8" font-family="Times,serif" font-size="14.00">show</text>
<polyline fill="none" stroke="black" points="210,-213 326,-213 "/>
<polyline fill="none" stroke="black" points="210,-189 326,-189 "/>
<text text-anchor="start" x="218" y="-173.8" font-family="Times,serif" font-size="14.00">_layout</text>
<text text-anchor="start" x="218" y="-158.8" font-family="Times,serif" font-size="14.00">set_album</text>
<text text-anchor="start" x="218" y="-143.8" font-family="Times,serif" font-size="14.00">view</text>
</g>
<!-- ApplicationController -->
<g id="node10" class="node"><title>ApplicationController</title>
<path fill="none" stroke="black" d="M-183,194C-183,194 -71,194 -71,194 -65,194 -59,188 -59,182 -59,182 -59,112 -59,112 -59,106 -65,100 -71,100 -71,100 -183,100 -183,100 -189,100 -195,106 -195,112 -195,112 -195,182 -195,182 -195,188 -189,194 -183,194"/>
<text text-anchor="middle" x="-127" y="115.2" font-family="Times,serif" font-size="14.00">ApplicationController</text>
<polyline fill="none" stroke="black" points="-195,123 -59,123 "/>
<polyline fill="none" stroke="black" points="-195,147 -59,147 "/>
<polyline fill="none" stroke="black" points="-195,171 -59,171 "/>
<text text-anchor="start" x="-187" y="186.2" font-family="Times,serif" font-size="14.00">_layout</text>
</g>
</g>
</svg>
