<?xml version="1.0" encoding="UTF-8" standalone="no"?>
<!DOCTYPE svg PUBLIC "-//W3C//DTD SVG 1.1//EN"
 "http://www.w3.org/Graphics/SVG/1.1/DTD/svg11.dtd">
<!-- Generated by graphviz version 2.38.0 (20140413.2041)
 -->
<!-- Title: models_diagram Pages: 1 -->
<svg width="1295pt" height="246pt"
 viewBox="0.00 0.00 1295.34 246.00" xmlns="http://www.w3.org/2000/svg" xmlns:xlink="http://www.w3.org/1999/xlink">
<g id="graph0" class="graph" transform="scale(1 1) rotate(0) translate(4 242)">
<title>models_diagram</title>
<polygon fill="none" stroke="none" points="-4,4 -4,-242 1291.34,-242 1291.34,4 -4,4"/>
<!-- _diagram_info -->
<g id="node1" class="node"><title>_diagram_info</title>
<text text-anchor="start" x="8" y="-223.6" font-family="Times,serif" font-size="13.00">Models diagram</text>
<text text-anchor="start" x="8" y="-209.6" font-family="Times,serif" font-size="13.00">Date: Apr 26 2017 &#45; 09:19</text>
<text text-anchor="start" x="8" y="-195.6" font-family="Times,serif" font-size="13.00">Migration version: 20170426060149</text>
<text text-anchor="start" x="8" y="-181.6" font-family="Times,serif" font-size="13.00">Generated by RailRoady 1.5.2</text>
<text text-anchor="start" x="8" y="-167.6" font-family="Times,serif" font-size="13.00">http://railroady.prestonlee.com</text>
</g>
<!-- Merit -->
<g id="node2" class="node"><title>Merit</title>
<ellipse fill="none" stroke="black" cx="248" cy="-18" rx="30.5947" ry="18"/>
<text text-anchor="middle" x="248" y="-14.3" font-family="Times,serif" font-size="14.00">Merit</text>
</g>
<!-- LeagueTeam -->
<g id="node3" class="node"><title>LeagueTeam</title>
<ellipse fill="none" stroke="black" cx="729" cy="-91" rx="57.3905" ry="18"/>
<text text-anchor="middle" x="729" y="-87.3" font-family="Times,serif" font-size="14.00">LeagueTeam</text>
</g>
<!-- Role -->
<g id="node4" class="node"><title>Role</title>
<ellipse fill="none" stroke="black" cx="911" cy="-199" rx="27.0966" ry="18"/>
<text text-anchor="middle" x="911" y="-195.3" font-family="Times,serif" font-size="14.00">Role</text>
</g>
<!-- User -->
<g id="node7" class="node"><title>User</title>
<ellipse fill="none" stroke="black" cx="911" cy="-91" rx="27.0966" ry="18"/>
<text text-anchor="middle" x="911" y="-87.3" font-family="Times,serif" font-size="14.00">User</text>
</g>
<!-- Role&#45;&gt;User -->
<g id="edge1" class="edge"><title>Role&#45;&gt;User</title>
<path fill="none" stroke="#867d85" d="M911,-170.931C911,-155.187 911,-135.393 911,-119.566"/>
<polygon fill="#867d85" stroke="#867d85" points="911,-170.969 906.5,-180.969 911,-175.969 911,-180.969 911,-180.969 911,-180.969 911,-175.969 915.5,-180.969 911,-170.969 911,-170.969"/>
<polygon fill="#867d85" stroke="#867d85" points="911,-119.341 915.5,-109.341 911,-114.341 911,-109.341 911,-109.341 911,-109.341 911,-114.341 906.5,-109.341 911,-119.341 911,-119.341"/>
</g>
<!-- Table -->
<g id="node5" class="node"><title>Table</title>
<ellipse fill="none" stroke="black" cx="835" cy="-91" rx="30.5947" ry="18"/>
<text text-anchor="middle" x="835" y="-87.3" font-family="Times,serif" font-size="14.00">Table</text>
</g>
<!-- Ability -->
<g id="node6" class="node"><title>Ability</title>
<polygon fill="none" stroke="black" points="1011.5,-217 956.5,-217 956.5,-181 1011.5,-181 1011.5,-217"/>
<text text-anchor="middle" x="984" y="-195.3" font-family="Times,serif" font-size="14.00">Ability</text>
</g>
<!-- Team -->
<g id="node8" class="node"><title>Team</title>
<ellipse fill="none" stroke="black" cx="263" cy="-199" rx="31.3957" ry="18"/>
<text text-anchor="middle" x="263" y="-195.3" font-family="Times,serif" font-size="14.00">Team</text>
</g>
<!-- Partnership -->
<g id="node13" class="node"><title>Partnership</title>
<ellipse fill="none" stroke="black" cx="149" cy="-18" rx="50.8918" ry="18"/>
<text text-anchor="middle" x="149" y="-14.3" font-family="Times,serif" font-size="14.00">Partnership</text>
</g>
<!-- Team&#45;&gt;Partnership -->
<g id="edge4" class="edge"><title>Team&#45;&gt;Partnership</title>
<path fill="none" stroke="#190a61" d="M241.663,-177.639C235.642,-171.918 229.076,-165.703 223,-160 198.693,-137.186 184.436,-138.003 168,-109 157.14,-89.8368 152.467,-65.1971 150.466,-46.5452"/>
<ellipse fill="none" stroke="#190a61" cx="244.567" cy="-180.401" rx="4.00002" ry="4.00002"/>
<polygon fill="#190a61" stroke="#190a61" points="150.445,-46.3035 154.054,-35.9483 150.008,-41.3226 149.571,-36.3418 149.571,-36.3418 149.571,-36.3418 150.008,-41.3226 145.088,-36.7353 150.445,-46.3035 150.445,-46.3035"/>
</g>
<!-- Coach -->
<g id="node15" class="node"><title>Coach</title>
<ellipse fill="none" stroke="black" cx="210" cy="-91" rx="33.2948" ry="18"/>
<text text-anchor="middle" x="210" y="-87.3" font-family="Times,serif" font-size="14.00">Coach</text>
</g>
<!-- Team&#45;&gt;Coach -->
<g id="edge5" class="edge"><title>Team&#45;&gt;Coach</title>
<path fill="none" stroke="#1da5c8" d="M250.161,-172.321C241.853,-155.707 231.081,-134.162 222.784,-117.569"/>
<polygon fill="#1da5c8" stroke="#1da5c8" points="250.247,-172.493 250.694,-183.45 252.483,-176.965 254.719,-181.438 254.719,-181.438 254.719,-181.438 252.483,-176.965 258.744,-179.425 250.247,-172.493 250.247,-172.493"/>
<polygon fill="#1da5c8" stroke="#1da5c8" points="222.695,-117.39 222.248,-106.434 220.459,-112.918 218.223,-108.446 218.223,-108.446 218.223,-108.446 220.459,-112.918 214.198,-110.459 222.695,-117.39 222.695,-117.39"/>
</g>
<!-- Player -->
<g id="node19" class="node"><title>Player</title>
<ellipse fill="none" stroke="black" cx="294" cy="-91" rx="33.2948" ry="18"/>
<text text-anchor="middle" x="294" y="-87.3" font-family="Times,serif" font-size="14.00">Player</text>
</g>
<!-- Team&#45;&gt;Player -->
<g id="edge3" class="edge"><title>Team&#45;&gt;Player</title>
<path fill="none" stroke="#adcd29" d="M270.232,-173.271C275.016,-156.914 281.285,-135.476 286.184,-118.725"/>
<ellipse fill="none" stroke="#adcd29" cx="269.104" cy="-177.13" rx="4.00001" ry="4.00001"/>
<polygon fill="#adcd29" stroke="#adcd29" points="286.225,-118.586 293.351,-110.252 287.628,-113.787 289.032,-108.988 289.032,-108.988 289.032,-108.988 287.628,-113.787 284.713,-107.725 286.225,-118.586 286.225,-118.586"/>
</g>
<!-- FriendlyId::Slug -->
<g id="node20" class="node"><title>FriendlyId::Slug</title>
<ellipse fill="none" stroke="black" cx="423" cy="-91" rx="68.7879" ry="18"/>
<text text-anchor="middle" x="423" y="-87.3" font-family="Times,serif" font-size="14.00">FriendlyId::Slug</text>
</g>
<!-- Team&#45;&gt;FriendlyId::Slug -->
<g id="edge2" class="edge"><title>Team&#45;&gt;FriendlyId::Slug</title>
<path fill="none" stroke="#d94c46" d="M288.489,-179.569C308.934,-164.953 338.493,-144.197 365,-127 372.233,-122.307 380.08,-117.432 387.596,-112.863"/>
<ellipse fill="none" stroke="#d94c46" cx="285.173" cy="-181.946" rx="4.00002" ry="4.00002"/>
<polygon fill="#d94c46" stroke="#d94c46" points="387.647,-112.833 398.534,-111.524 391.929,-110.252 396.211,-107.671 396.211,-107.671 396.211,-107.671 391.929,-110.252 393.888,-103.817 387.647,-112.833 387.647,-112.833"/>
<text text-anchor="middle" x="379" y="-130.8" font-family="Times,serif" font-size="14.00">slugs</text>
</g>
<!-- Photo -->
<g id="node9" class="node"><title>Photo</title>
<ellipse fill="none" stroke="black" cx="545" cy="-91" rx="31.3957" ry="18"/>
<text text-anchor="middle" x="545" y="-87.3" font-family="Times,serif" font-size="14.00">Photo</text>
</g>
<!-- Schedule -->
<g id="node10" class="node"><title>Schedule</title>
<ellipse fill="none" stroke="black" cx="1072" cy="-199" rx="42.7926" ry="18"/>
<text text-anchor="middle" x="1072" y="-195.3" font-family="Times,serif" font-size="14.00">Schedule</text>
</g>
<!-- League -->
<g id="node11" class="node"><title>League</title>
<ellipse fill="none" stroke="black" cx="779" cy="-199" rx="36.2938" ry="18"/>
<text text-anchor="middle" x="779" y="-195.3" font-family="Times,serif" font-size="14.00">League</text>
</g>
<!-- League&#45;&gt;LeagueTeam -->
<g id="edge6" class="edge"><title>League&#45;&gt;LeagueTeam</title>
<path fill="none" stroke="#3841da" d="M767.46,-173.534C759.662,-157.004 749.376,-135.198 741.404,-118.296"/>
<ellipse fill="none" stroke="#3841da" cx="769.26" cy="-177.352" rx="4.00002" ry="4.00002"/>
<polygon fill="#3841da" stroke="#3841da" points="741.28,-118.033 741.083,-107.069 739.147,-113.511 737.013,-108.988 737.013,-108.988 737.013,-108.988 739.147,-113.511 732.943,-110.908 741.28,-118.033 741.28,-118.033"/>
</g>
<!-- League&#45;&gt;Table -->
<g id="edge7" class="edge"><title>League&#45;&gt;Table</title>
<path fill="none" stroke="#bd4792" d="M791.575,-174.197C800.502,-157.299 812.47,-134.646 821.581,-117.4"/>
<ellipse fill="none" stroke="#bd4792" cx="789.619" cy="-177.901" rx="4.00002" ry="4.00002"/>
<polygon fill="#bd4792" stroke="#bd4792" points="821.64,-117.288 830.29,-110.548 823.976,-112.867 826.311,-108.446 826.311,-108.446 826.311,-108.446 823.976,-112.867 822.333,-106.344 821.64,-117.288 821.64,-117.288"/>
</g>
<!-- Article -->
<g id="node12" class="node"><title>Article</title>
<ellipse fill="none" stroke="black" cx="369" cy="-199" rx="35.194" ry="18"/>
<text text-anchor="middle" x="369" y="-195.3" font-family="Times,serif" font-size="14.00">Article</text>
</g>
<!-- Article&#45;&gt;FriendlyId::Slug -->
<g id="edge8" class="edge"><title>Article&#45;&gt;FriendlyId::Slug</title>
<path fill="none" stroke="#a6e3a1" d="M379.998,-173.927C386.456,-160.079 394.915,-142.422 403,-127 404.56,-124.025 406.238,-120.935 407.935,-117.878"/>
<ellipse fill="none" stroke="#a6e3a1" cx="378.314" cy="-177.561" rx="4.00002" ry="4.00002"/>
<polygon fill="#a6e3a1" stroke="#a6e3a1" points="408.06,-117.656 416.901,-111.168 410.522,-113.305 412.984,-108.953 412.984,-108.953 412.984,-108.953 410.522,-113.305 409.067,-106.737 408.06,-117.656 408.06,-117.656"/>
<text text-anchor="middle" x="417" y="-130.8" font-family="Times,serif" font-size="14.00">slugs</text>
</g>
<!-- Video -->
<g id="node14" class="node"><title>Video</title>
<ellipse fill="none" stroke="black" cx="455" cy="-199" rx="32.4942" ry="18"/>
<text text-anchor="middle" x="455" y="-195.3" font-family="Times,serif" font-size="14.00">Video</text>
</g>
<!-- Video&#45;&gt;FriendlyId::Slug -->
<g id="edge9" class="edge"><title>Video&#45;&gt;FriendlyId::Slug</title>
<path fill="none" stroke="#e40f48" d="M447.535,-173.271C442.597,-156.914 436.125,-135.476 431.068,-118.725"/>
<ellipse fill="none" stroke="#e40f48" cx="448.703" cy="-177.14" rx="4.00001" ry="4.00001"/>
<polygon fill="#e40f48" stroke="#e40f48" points="431.019,-118.562 432.437,-107.688 429.574,-113.775 428.129,-108.988 428.129,-108.988 428.129,-108.988 429.574,-113.775 423.821,-110.289 431.019,-118.562 431.019,-118.562"/>
<text text-anchor="middle" x="453" y="-130.8" font-family="Times,serif" font-size="14.00">slugs</text>
</g>
<!-- Coach&#45;&gt;Merit -->
<g id="edge11" class="edge"><title>Coach&#45;&gt;Merit</title>
<path fill="none" stroke="#438b60" d="M222.611,-66.4374C226.357,-59.4377 230.479,-51.7373 234.291,-44.614"/>
<ellipse fill="none" stroke="#438b60" cx="220.701" cy="-70.0061" rx="4.00002" ry="4.00002"/>
<polygon fill="#438b60" stroke="#438b60" points="234.516,-44.1946 243.202,-37.5015 236.875,-39.7863 239.234,-35.378 239.234,-35.378 239.234,-35.378 236.875,-39.7863 235.267,-33.2545 234.516,-44.1946 234.516,-44.1946"/>
</g>
<!-- Coach&#45;&gt;Partnership -->
<g id="edge10" class="edge"><title>Coach&#45;&gt;Partnership</title>
<path fill="none" stroke="#b19136" d="M191.123,-68.0288C184.407,-60.2111 176.806,-51.3642 169.928,-43.3585"/>
<ellipse fill="none" stroke="#b19136" cx="193.855" cy="-71.2088" rx="4.00002" ry="4.00002"/>
<polygon fill="#b19136" stroke="#b19136" points="169.867,-43.2875 166.763,-32.7699 166.608,-39.4949 163.35,-35.7024 163.35,-35.7024 163.35,-35.7024 166.608,-39.4949 159.937,-38.635 169.867,-43.2875 169.867,-43.2875"/>
</g>
<!-- View -->
<g id="node16" class="node"><title>View</title>
<ellipse fill="none" stroke="black" cx="624" cy="-91" rx="29.795" ry="18"/>
<text text-anchor="middle" x="624" y="-87.3" font-family="Times,serif" font-size="14.00">View</text>
</g>
<!-- ApplicationRecord -->
<g id="node17" class="node"><title>ApplicationRecord</title>
<ellipse fill="none" stroke="black" cx="1210" cy="-199" rx="77.1866" ry="18"/>
<text text-anchor="middle" x="1210" y="-195.3" font-family="Times,serif" font-size="14.00">ApplicationRecord</text>
</g>
<!-- Album -->
<g id="node18" class="node"><title>Album</title>
<ellipse fill="none" stroke="black" cx="545" cy="-199" rx="35.9954" ry="18"/>
<text text-anchor="middle" x="545" y="-195.3" font-family="Times,serif" font-size="14.00">Album</text>
</g>
<!-- Album&#45;&gt;Photo -->
<g id="edge14" class="edge"><title>Album&#45;&gt;Photo</title>
<path fill="none" stroke="#15e795" d="M545,-172.795C545,-156.735 545,-135.927 545,-119.45"/>
<ellipse fill="none" stroke="#15e795" cx="545" cy="-176.969" rx="4" ry="4"/>
<polygon fill="#15e795" stroke="#15e795" points="545,-119.341 549.5,-109.341 545,-114.341 545,-109.341 545,-109.341 545,-109.341 545,-114.341 540.5,-109.341 545,-119.341 545,-119.341"/>
</g>
<!-- Album&#45;&gt;View -->
<g id="edge13" class="edge"><title>Album&#45;&gt;View</title>
<path fill="none" stroke="#bae436" d="M561.849,-175.392C575.201,-157.477 593.769,-132.563 607.128,-114.639"/>
<ellipse fill="none" stroke="#bae436" cx="559.389" cy="-178.694" rx="4.00002" ry="4.00002"/>
<ellipse fill="#bae436" stroke="#bae436" cx="609.757" cy="-111.111" rx="4.00002" ry="4.00002"/>
</g>
<!-- Album&#45;&gt;FriendlyId::Slug -->
<g id="edge12" class="edge"><title>Album&#45;&gt;FriendlyId::Slug</title>
<path fill="none" stroke="#1b8ddb" d="M524.135,-176.511C509.684,-162.002 489.748,-142.707 471,-127 465.916,-122.74 460.357,-118.412 454.882,-114.318"/>
<ellipse fill="none" stroke="#1b8ddb" cx="527.159" cy="-179.568" rx="4.00002" ry="4.00002"/>
<polygon fill="#1b8ddb" stroke="#1b8ddb" points="454.495,-114.034 449.09,-104.493 450.462,-111.078 446.429,-108.122 446.429,-108.122 446.429,-108.122 450.462,-111.078 443.769,-111.751 454.495,-114.034 454.495,-114.034"/>
<text text-anchor="middle" x="501" y="-130.8" font-family="Times,serif" font-size="14.00">slugs</text>
</g>
</g>
</svg>
