<?xml version="1.0" encoding="UTF-8" standalone="no"?>
<!DOCTYPE svg PUBLIC "-//W3C//DTD SVG 1.1//EN"
 "http://www.w3.org/Graphics/SVG/1.1/DTD/svg11.dtd">
<!-- Generated by graphviz version 2.38.0 (20140413.2041)
 -->
<!-- Title: models_diagram Pages: 1 -->
<svg width="2756pt" height="717pt"
 viewBox="0.00 0.00 2756.34 717.00" xmlns="http://www.w3.org/2000/svg" xmlns:xlink="http://www.w3.org/1999/xlink">
<g id="graph0" class="graph" transform="scale(1 1) rotate(0) translate(4 713)">
<title>models_diagram</title>
<polygon fill="none" stroke="none" points="-4,4 -4,-713 2752.34,-713 2752.34,4 -4,4"/>
<!-- _diagram_info -->
<g id="node1" class="node"><title>_diagram_info</title>
<text text-anchor="start" x="8" y="-620.1" font-family="Times,serif" font-size="13.00">Models diagram</text>
<text text-anchor="start" x="8" y="-606.1" font-family="Times,serif" font-size="13.00">Date: Apr 26 2017 &#45; 09:19</text>
<text text-anchor="start" x="8" y="-592.1" font-family="Times,serif" font-size="13.00">Migration version: 20170426060149</text>
<text text-anchor="start" x="8" y="-578.1" font-family="Times,serif" font-size="13.00">Generated by RailRoady 1.5.2</text>
<text text-anchor="start" x="8" y="-564.1" font-family="Times,serif" font-size="13.00">http://railroady.prestonlee.com</text>
</g>
<!-- Merit -->
<g id="node2" class="node"><title>Merit</title>
<path fill="none" stroke="black" d="M306,-0.5C306,-0.5 526,-0.5 526,-0.5 532,-0.5 538,-6.5 538,-12.5 538,-12.5 538,-94.5 538,-94.5 538,-100.5 532,-106.5 526,-106.5 526,-106.5 306,-106.5 306,-106.5 300,-106.5 294,-100.5 294,-94.5 294,-94.5 294,-12.5 294,-12.5 294,-6.5 300,-0.5 306,-0.5"/>
<text text-anchor="middle" x="416" y="-91.3" font-family="Times,serif" font-size="14.00">Merit</text>
<polyline fill="none" stroke="black" points="294,-83.5 538,-83.5 "/>
<text text-anchor="start" x="302" y="-68.3" font-family="Times,serif" font-size="14.00">id :integer</text>
<text text-anchor="start" x="302" y="-53.3" font-family="Times,serif" font-size="14.00">merit :character varying</text>
<text text-anchor="start" x="302" y="-38.3" font-family="Times,serif" font-size="14.00">coach_id :integer</text>
<text text-anchor="start" x="302" y="-23.3" font-family="Times,serif" font-size="14.00">created_at :timestamp without time zone</text>
<text text-anchor="start" x="302" y="-8.3" font-family="Times,serif" font-size="14.00">updated_at :timestamp without time zone</text>
</g>
<!-- LeagueTeam -->
<g id="node3" class="node"><title>LeagueTeam</title>
<path fill="none" stroke="black" d="M1449,-234.5C1449,-234.5 1669,-234.5 1669,-234.5 1675,-234.5 1681,-240.5 1681,-246.5 1681,-246.5 1681,-328.5 1681,-328.5 1681,-334.5 1675,-340.5 1669,-340.5 1669,-340.5 1449,-340.5 1449,-340.5 1443,-340.5 1437,-334.5 1437,-328.5 1437,-328.5 1437,-246.5 1437,-246.5 1437,-240.5 1443,-234.5 1449,-234.5"/>
<text text-anchor="middle" x="1559" y="-325.3" font-family="Times,serif" font-size="14.00">LeagueTeam</text>
<polyline fill="none" stroke="black" points="1437,-317.5 1681,-317.5 "/>
<text text-anchor="start" x="1445" y="-302.3" font-family="Times,serif" font-size="14.00">id :integer</text>
<text text-anchor="start" x="1445" y="-287.3" font-family="Times,serif" font-size="14.00">team_name :character varying</text>
<text text-anchor="start" x="1445" y="-272.3" font-family="Times,serif" font-size="14.00">league_id :integer</text>
<text text-anchor="start" x="1445" y="-257.3" font-family="Times,serif" font-size="14.00">created_at :timestamp without time zone</text>
<text text-anchor="start" x="1445" y="-242.3" font-family="Times,serif" font-size="14.00">updated_at :timestamp without time zone</text>
</g>
<!-- Role -->
<g id="node4" class="node"><title>Role</title>
<path fill="none" stroke="black" d="M2008,-535C2008,-535 2228,-535 2228,-535 2234,-535 2240,-541 2240,-547 2240,-547 2240,-644 2240,-644 2240,-650 2234,-656 2228,-656 2228,-656 2008,-656 2008,-656 2002,-656 1996,-650 1996,-644 1996,-644 1996,-547 1996,-547 1996,-541 2002,-535 2008,-535"/>
<text text-anchor="middle" x="2118" y="-640.8" font-family="Times,serif" font-size="14.00">Role</text>
<polyline fill="none" stroke="black" points="1996,-633 2240,-633 "/>
<text text-anchor="start" x="2004" y="-617.8" font-family="Times,serif" font-size="14.00">id :integer</text>
<text text-anchor="start" x="2004" y="-602.8" font-family="Times,serif" font-size="14.00">name :character varying</text>
<text text-anchor="start" x="2004" y="-587.8" font-family="Times,serif" font-size="14.00">resource_type :character varying</text>
<text text-anchor="start" x="2004" y="-572.8" font-family="Times,serif" font-size="14.00">resource_id :integer</text>
<text text-anchor="start" x="2004" y="-557.8" font-family="Times,serif" font-size="14.00">created_at :timestamp without time zone</text>
<text text-anchor="start" x="2004" y="-542.8" font-family="Times,serif" font-size="14.00">updated_at :timestamp without time zone</text>
</g>
<!-- User -->
<g id="node7" class="node"><title>User</title>
<path fill="none" stroke="black" d="M1973.5,-144.5C1973.5,-144.5 2262.5,-144.5 2262.5,-144.5 2268.5,-144.5 2274.5,-150.5 2274.5,-156.5 2274.5,-156.5 2274.5,-418.5 2274.5,-418.5 2274.5,-424.5 2268.5,-430.5 2262.5,-430.5 2262.5,-430.5 1973.5,-430.5 1973.5,-430.5 1967.5,-430.5 1961.5,-424.5 1961.5,-418.5 1961.5,-418.5 1961.5,-156.5 1961.5,-156.5 1961.5,-150.5 1967.5,-144.5 1973.5,-144.5"/>
<text text-anchor="middle" x="2118" y="-415.3" font-family="Times,serif" font-size="14.00">User</text>
<polyline fill="none" stroke="black" points="1961.5,-407.5 2274.5,-407.5 "/>
<text text-anchor="start" x="1969.5" y="-392.3" font-family="Times,serif" font-size="14.00">id :integer</text>
<text text-anchor="start" x="1969.5" y="-377.3" font-family="Times,serif" font-size="14.00">email :character varying</text>
<text text-anchor="start" x="1969.5" y="-362.3" font-family="Times,serif" font-size="14.00">encrypted_password :character varying</text>
<text text-anchor="start" x="1969.5" y="-347.3" font-family="Times,serif" font-size="14.00">reset_password_token :character varying</text>
<text text-anchor="start" x="1969.5" y="-332.3" font-family="Times,serif" font-size="14.00">reset_password_sent_at :timestamp without time zone</text>
<text text-anchor="start" x="1969.5" y="-317.3" font-family="Times,serif" font-size="14.00">remember_created_at :timestamp without time zone</text>
<text text-anchor="start" x="1969.5" y="-302.3" font-family="Times,serif" font-size="14.00">sign_in_count :integer</text>
<text text-anchor="start" x="1969.5" y="-287.3" font-family="Times,serif" font-size="14.00">current_sign_in_at :timestamp without time zone</text>
<text text-anchor="start" x="1969.5" y="-272.3" font-family="Times,serif" font-size="14.00">last_sign_in_at :timestamp without time zone</text>
<text text-anchor="start" x="1969.5" y="-257.3" font-family="Times,serif" font-size="14.00">current_sign_in_ip :inet</text>
<text text-anchor="start" x="1969.5" y="-242.3" font-family="Times,serif" font-size="14.00">last_sign_in_ip :inet</text>
<text text-anchor="start" x="1969.5" y="-227.3" font-family="Times,serif" font-size="14.00">created_at :timestamp without time zone</text>
<text text-anchor="start" x="1969.5" y="-212.3" font-family="Times,serif" font-size="14.00">updated_at :timestamp without time zone</text>
<text text-anchor="start" x="1969.5" y="-197.3" font-family="Times,serif" font-size="14.00">provider :character varying</text>
<text text-anchor="start" x="1969.5" y="-182.3" font-family="Times,serif" font-size="14.00">uid :character varying</text>
<text text-anchor="start" x="1969.5" y="-167.3" font-family="Times,serif" font-size="14.00">username :character varying</text>
<text text-anchor="start" x="1969.5" y="-152.3" font-family="Times,serif" font-size="14.00">avatarc :character varying</text>
</g>
<!-- Role&#45;&gt;User -->
<g id="edge1" class="edge"><title>Role&#45;&gt;User</title>
<path fill="none" stroke="#30f36f" d="M2118,-524.723C2118,-499.706 2118,-470.423 2118,-441.156"/>
<polygon fill="#30f36f" stroke="#30f36f" points="2118,-524.774 2113.5,-534.774 2118,-529.774 2118,-534.774 2118,-534.774 2118,-534.774 2118,-529.774 2122.5,-534.774 2118,-524.774 2118,-524.774"/>
<polygon fill="#30f36f" stroke="#30f36f" points="2118,-440.812 2122.5,-430.812 2118,-435.812 2118,-430.812 2118,-430.812 2118,-430.812 2118,-435.812 2113.5,-430.812 2118,-440.812 2118,-440.812"/>
</g>
<!-- Table -->
<g id="node5" class="node"><title>Table</title>
<path fill="none" stroke="black" d="M1711,-227C1711,-227 1931,-227 1931,-227 1937,-227 1943,-233 1943,-239 1943,-239 1943,-336 1943,-336 1943,-342 1937,-348 1931,-348 1931,-348 1711,-348 1711,-348 1705,-348 1699,-342 1699,-336 1699,-336 1699,-239 1699,-239 1699,-233 1705,-227 1711,-227"/>
<text text-anchor="middle" x="1821" y="-332.8" font-family="Times,serif" font-size="14.00">Table</text>
<polyline fill="none" stroke="black" points="1699,-325 1943,-325 "/>
<text text-anchor="start" x="1707" y="-309.8" font-family="Times,serif" font-size="14.00">id :integer</text>
<text text-anchor="start" x="1707" y="-294.8" font-family="Times,serif" font-size="14.00">points :integer</text>
<text text-anchor="start" x="1707" y="-279.8" font-family="Times,serif" font-size="14.00">team_name :character varying</text>
<text text-anchor="start" x="1707" y="-264.8" font-family="Times,serif" font-size="14.00">league_id :integer</text>
<text text-anchor="start" x="1707" y="-249.8" font-family="Times,serif" font-size="14.00">created_at :timestamp without time zone</text>
<text text-anchor="start" x="1707" y="-234.8" font-family="Times,serif" font-size="14.00">updated_at :timestamp without time zone</text>
</g>
<!-- Ability -->
<g id="node6" class="node"><title>Ability</title>
<polygon fill="none" stroke="black" points="2258.5,-572.5 2258.5,-618.5 2313.5,-618.5 2313.5,-572.5 2258.5,-572.5"/>
<text text-anchor="middle" x="2286" y="-603.3" font-family="Times,serif" font-size="14.00">Ability</text>
<polyline fill="none" stroke="black" points="2258.5,-595.5 2313.5,-595.5 "/>
<text text-anchor="middle" x="2286" y="-580.3" font-family="Times,serif" font-size="14.00"> </text>
</g>
<!-- Team -->
<g id="node8" class="node"><title>Team</title>
<path fill="none" stroke="black" d="M244,-535C244,-535 464,-535 464,-535 470,-535 476,-541 476,-547 476,-547 476,-644 476,-644 476,-650 470,-656 464,-656 464,-656 244,-656 244,-656 238,-656 232,-650 232,-644 232,-644 232,-547 232,-547 232,-541 238,-535 244,-535"/>
<text text-anchor="middle" x="354" y="-640.8" font-family="Times,serif" font-size="14.00">Team</text>
<polyline fill="none" stroke="black" points="232,-633 476,-633 "/>
<text text-anchor="start" x="240" y="-617.8" font-family="Times,serif" font-size="14.00">id :integer</text>
<text text-anchor="start" x="240" y="-602.8" font-family="Times,serif" font-size="14.00">name :character varying</text>
<text text-anchor="start" x="240" y="-587.8" font-family="Times,serif" font-size="14.00">created_at :timestamp without time zone</text>
<text text-anchor="start" x="240" y="-572.8" font-family="Times,serif" font-size="14.00">updated_at :timestamp without time zone</text>
<text text-anchor="start" x="240" y="-557.8" font-family="Times,serif" font-size="14.00">slug :character varying</text>
<text text-anchor="start" x="240" y="-542.8" font-family="Times,serif" font-size="14.00">photo :character varying</text>
</g>
<!-- Partnership -->
<g id="node13" class="node"><title>Partnership</title>
<path fill="none" stroke="black" d="M44,-0.5C44,-0.5 264,-0.5 264,-0.5 270,-0.5 276,-6.5 276,-12.5 276,-12.5 276,-94.5 276,-94.5 276,-100.5 270,-106.5 264,-106.5 264,-106.5 44,-106.5 44,-106.5 38,-106.5 32,-100.5 32,-94.5 32,-94.5 32,-12.5 32,-12.5 32,-6.5 38,-0.5 44,-0.5"/>
<text text-anchor="middle" x="154" y="-91.3" font-family="Times,serif" font-size="14.00">Partnership</text>
<polyline fill="none" stroke="black" points="32,-83.5 276,-83.5 "/>
<text text-anchor="start" x="40" y="-68.3" font-family="Times,serif" font-size="14.00">id :integer</text>
<text text-anchor="start" x="40" y="-53.3" font-family="Times,serif" font-size="14.00">team_id :integer</text>
<text text-anchor="start" x="40" y="-38.3" font-family="Times,serif" font-size="14.00">coach_id :integer</text>
<text text-anchor="start" x="40" y="-23.3" font-family="Times,serif" font-size="14.00">created_at :timestamp without time zone</text>
<text text-anchor="start" x="40" y="-8.3" font-family="Times,serif" font-size="14.00">updated_at :timestamp without time zone</text>
</g>
<!-- Team&#45;&gt;Partnership -->
<g id="edge4" class="edge"><title>Team&#45;&gt;Partnership</title>
<path fill="none" stroke="#c348fe" d="M279.394,-529.434C230.947,-486.803 176.206,-437.752 173,-431 124.71,-329.295 132.74,-194.267 143.204,-116.626"/>
<ellipse fill="none" stroke="#c348fe" cx="282.567" cy="-532.223" rx="4.00002" ry="4.00002"/>
<polygon fill="#c348fe" stroke="#c348fe" points="143.232,-116.426 149.08,-107.149 143.928,-111.474 144.623,-106.523 144.623,-106.523 144.623,-106.523 143.928,-111.474 140.167,-105.897 143.232,-116.426 143.232,-116.426"/>
</g>
<!-- Coach -->
<g id="node15" class="node"><title>Coach</title>
<path fill="none" stroke="black" d="M194,-227C194,-227 414,-227 414,-227 420,-227 426,-233 426,-239 426,-239 426,-336 426,-336 426,-342 420,-348 414,-348 414,-348 194,-348 194,-348 188,-348 182,-342 182,-336 182,-336 182,-239 182,-239 182,-233 188,-227 194,-227"/>
<text text-anchor="middle" x="304" y="-332.8" font-family="Times,serif" font-size="14.00">Coach</text>
<polyline fill="none" stroke="black" points="182,-325 426,-325 "/>
<text text-anchor="start" x="190" y="-309.8" font-family="Times,serif" font-size="14.00">id :integer</text>
<text text-anchor="start" x="190" y="-294.8" font-family="Times,serif" font-size="14.00">name :character varying</text>
<text text-anchor="start" x="190" y="-279.8" font-family="Times,serif" font-size="14.00">photo :character varying</text>
<text text-anchor="start" x="190" y="-264.8" font-family="Times,serif" font-size="14.00">created_at :timestamp without time zone</text>
<text text-anchor="start" x="190" y="-249.8" font-family="Times,serif" font-size="14.00">updated_at :timestamp without time zone</text>
<text text-anchor="start" x="190" y="-234.8" font-family="Times,serif" font-size="14.00">birthday :date</text>
</g>
<!-- Team&#45;&gt;Coach -->
<g id="edge5" class="edge"><title>Team&#45;&gt;Coach</title>
<path fill="none" stroke="#b57f46" d="M342.597,-524.716C334.446,-474.829 323.522,-407.977 315.377,-358.126"/>
<polygon fill="#b57f46" stroke="#b57f46" points="342.628,-524.905 339.8,-535.499 343.434,-529.839 344.241,-534.774 344.241,-534.774 344.241,-534.774 343.434,-529.839 348.682,-534.048 342.628,-524.905 342.628,-524.905"/>
<polygon fill="#b57f46" stroke="#b57f46" points="315.347,-357.945 318.176,-347.35 314.541,-353.01 313.735,-348.076 313.735,-348.076 313.735,-348.076 314.541,-353.01 309.293,-348.801 315.347,-357.945 315.347,-357.945"/>
</g>
<!-- Player -->
<g id="node19" class="node"><title>Player</title>
<path fill="none" stroke="black" d="M456,-212C456,-212 676,-212 676,-212 682,-212 688,-218 688,-224 688,-224 688,-351 688,-351 688,-357 682,-363 676,-363 676,-363 456,-363 456,-363 450,-363 444,-357 444,-351 444,-351 444,-224 444,-224 444,-218 450,-212 456,-212"/>
<text text-anchor="middle" x="566" y="-347.8" font-family="Times,serif" font-size="14.00">Player</text>
<polyline fill="none" stroke="black" points="444,-340 688,-340 "/>
<text text-anchor="start" x="452" y="-324.8" font-family="Times,serif" font-size="14.00">id :integer</text>
<text text-anchor="start" x="452" y="-309.8" font-family="Times,serif" font-size="14.00">name :character varying</text>
<text text-anchor="start" x="452" y="-294.8" font-family="Times,serif" font-size="14.00">surname :character varying</text>
<text text-anchor="start" x="452" y="-279.8" font-family="Times,serif" font-size="14.00">birthday :date</text>
<text text-anchor="start" x="452" y="-264.8" font-family="Times,serif" font-size="14.00">team_id :integer</text>
<text text-anchor="start" x="452" y="-249.8" font-family="Times,serif" font-size="14.00">created_at :timestamp without time zone</text>
<text text-anchor="start" x="452" y="-234.8" font-family="Times,serif" font-size="14.00">updated_at :timestamp without time zone</text>
<text text-anchor="start" x="452" y="-219.8" font-family="Times,serif" font-size="14.00">photo :character varying</text>
</g>
<!-- Team&#45;&gt;Player -->
<g id="edge3" class="edge"><title>Team&#45;&gt;Player</title>
<path fill="none" stroke="#6752c3" d="M400.043,-528.042C431.837,-482.15 474.355,-420.78 508.394,-371.648"/>
<ellipse fill="none" stroke="#6752c3" cx="397.657" cy="-531.486" rx="4.00002" ry="4.00002"/>
<polygon fill="#6752c3" stroke="#6752c3" points="508.518,-371.469 517.912,-365.812 511.366,-367.359 514.213,-363.249 514.213,-363.249 514.213,-363.249 511.366,-367.359 510.514,-360.686 508.518,-371.469 508.518,-371.469"/>
</g>
<!-- FriendlyId::Slug -->
<g id="node20" class="node"><title>FriendlyId::Slug</title>
<ellipse fill="none" stroke="black" cx="809" cy="-287.5" rx="68.7879" ry="18"/>
<text text-anchor="middle" x="809" y="-283.8" font-family="Times,serif" font-size="14.00">FriendlyId::Slug</text>
</g>
<!-- Team&#45;&gt;FriendlyId::Slug -->
<g id="edge2" class="edge"><title>Team&#45;&gt;FriendlyId::Slug</title>
<path fill="none" stroke="#eddc33" d="M427.011,-529.99C449.814,-512.402 475.871,-494.715 502,-482 582.551,-442.803 622.08,-480.111 697,-431 742.509,-401.168 777.641,-346.616 795.65,-314.353"/>
<ellipse fill="none" stroke="#eddc33" cx="423.821" cy="-532.482" rx="4.00002" ry="4.00002"/>
<polygon fill="#eddc33" stroke="#eddc33" points="795.691,-314.277 804.427,-307.648 798.084,-309.886 800.476,-305.495 800.476,-305.495 800.476,-305.495 798.084,-309.886 796.524,-303.342 795.691,-314.277 795.691,-314.277"/>
<text text-anchor="middle" x="674" y="-452.8" font-family="Times,serif" font-size="14.00">slugs</text>
</g>
<!-- Photo -->
<g id="node9" class="node"><title>Photo</title>
<path fill="none" stroke="black" d="M925,-234.5C925,-234.5 1145,-234.5 1145,-234.5 1151,-234.5 1157,-240.5 1157,-246.5 1157,-246.5 1157,-328.5 1157,-328.5 1157,-334.5 1151,-340.5 1145,-340.5 1145,-340.5 925,-340.5 925,-340.5 919,-340.5 913,-334.5 913,-328.5 913,-328.5 913,-246.5 913,-246.5 913,-240.5 919,-234.5 925,-234.5"/>
<text text-anchor="middle" x="1035" y="-325.3" font-family="Times,serif" font-size="14.00">Photo</text>
<polyline fill="none" stroke="black" points="913,-317.5 1157,-317.5 "/>
<text text-anchor="start" x="921" y="-302.3" font-family="Times,serif" font-size="14.00">id :integer</text>
<text text-anchor="start" x="921" y="-287.3" font-family="Times,serif" font-size="14.00">album_id :integer</text>
<text text-anchor="start" x="921" y="-272.3" font-family="Times,serif" font-size="14.00">photo :character varying</text>
<text text-anchor="start" x="921" y="-257.3" font-family="Times,serif" font-size="14.00">created_at :timestamp without time zone</text>
<text text-anchor="start" x="921" y="-242.3" font-family="Times,serif" font-size="14.00">updated_at :timestamp without time zone</text>
</g>
<!-- Schedule -->
<g id="node10" class="node"><title>Schedule</title>
<path fill="none" stroke="black" d="M2344,-482.5C2344,-482.5 2564,-482.5 2564,-482.5 2570,-482.5 2576,-488.5 2576,-494.5 2576,-494.5 2576,-696.5 2576,-696.5 2576,-702.5 2570,-708.5 2564,-708.5 2564,-708.5 2344,-708.5 2344,-708.5 2338,-708.5 2332,-702.5 2332,-696.5 2332,-696.5 2332,-494.5 2332,-494.5 2332,-488.5 2338,-482.5 2344,-482.5"/>
<text text-anchor="middle" x="2454" y="-693.3" font-family="Times,serif" font-size="14.00">Schedule</text>
<polyline fill="none" stroke="black" points="2332,-685.5 2576,-685.5 "/>
<text text-anchor="start" x="2340" y="-670.3" font-family="Times,serif" font-size="14.00">id :integer</text>
<text text-anchor="start" x="2340" y="-655.3" font-family="Times,serif" font-size="14.00">team :character varying</text>
<text text-anchor="start" x="2340" y="-640.3" font-family="Times,serif" font-size="14.00">coach :character varying</text>
<text text-anchor="start" x="2340" y="-625.3" font-family="Times,serif" font-size="14.00">stadium :character varying</text>
<text text-anchor="start" x="2340" y="-610.3" font-family="Times,serif" font-size="14.00">mon :character varying</text>
<text text-anchor="start" x="2340" y="-595.3" font-family="Times,serif" font-size="14.00">tue :character varying</text>
<text text-anchor="start" x="2340" y="-580.3" font-family="Times,serif" font-size="14.00">wed :character varying</text>
<text text-anchor="start" x="2340" y="-565.3" font-family="Times,serif" font-size="14.00">thu :character varying</text>
<text text-anchor="start" x="2340" y="-550.3" font-family="Times,serif" font-size="14.00">fri :character varying</text>
<text text-anchor="start" x="2340" y="-535.3" font-family="Times,serif" font-size="14.00">sat :character varying</text>
<text text-anchor="start" x="2340" y="-520.3" font-family="Times,serif" font-size="14.00">sun :character varying</text>
<text text-anchor="start" x="2340" y="-505.3" font-family="Times,serif" font-size="14.00">created_at :timestamp without time zone</text>
<text text-anchor="start" x="2340" y="-490.3" font-family="Times,serif" font-size="14.00">updated_at :timestamp without time zone</text>
</g>
<!-- League -->
<g id="node11" class="node"><title>League</title>
<path fill="none" stroke="black" d="M1580,-550C1580,-550 1800,-550 1800,-550 1806,-550 1812,-556 1812,-562 1812,-562 1812,-629 1812,-629 1812,-635 1806,-641 1800,-641 1800,-641 1580,-641 1580,-641 1574,-641 1568,-635 1568,-629 1568,-629 1568,-562 1568,-562 1568,-556 1574,-550 1580,-550"/>
<text text-anchor="middle" x="1690" y="-625.8" font-family="Times,serif" font-size="14.00">League</text>
<polyline fill="none" stroke="black" points="1568,-618 1812,-618 "/>
<text text-anchor="start" x="1576" y="-602.8" font-family="Times,serif" font-size="14.00">id :integer</text>
<text text-anchor="start" x="1576" y="-587.8" font-family="Times,serif" font-size="14.00">name :character varying</text>
<text text-anchor="start" x="1576" y="-572.8" font-family="Times,serif" font-size="14.00">created_at :timestamp without time zone</text>
<text text-anchor="start" x="1576" y="-557.8" font-family="Times,serif" font-size="14.00">updated_at :timestamp without time zone</text>
</g>
<!-- League&#45;&gt;LeagueTeam -->
<g id="edge6" class="edge"><title>League&#45;&gt;LeagueTeam</title>
<path fill="none" stroke="#a87f32" d="M1667.65,-542.298C1644.87,-489.077 1609.53,-406.538 1585.39,-350.136"/>
<ellipse fill="none" stroke="#a87f32" cx="1669.24" cy="-546" rx="4.00002" ry="4.00002"/>
<polygon fill="#a87f32" stroke="#a87f32" points="1585.25,-349.814 1585.45,-338.85 1583.28,-345.217 1581.31,-340.621 1581.31,-340.621 1581.31,-340.621 1583.28,-345.217 1577.18,-342.392 1585.25,-349.814 1585.25,-349.814"/>
</g>
<!-- League&#45;&gt;Table -->
<g id="edge7" class="edge"><title>League&#45;&gt;Table</title>
<path fill="none" stroke="#63cf2b" d="M1712.35,-542.285C1734.14,-491.387 1767.41,-413.685 1791.39,-357.669"/>
<ellipse fill="none" stroke="#63cf2b" cx="1710.76" cy="-546" rx="4.00002" ry="4.00002"/>
<polygon fill="#63cf2b" stroke="#63cf2b" points="1791.52,-357.367 1799.59,-349.945 1793.49,-352.771 1795.45,-348.174 1795.45,-348.174 1795.45,-348.174 1793.49,-352.771 1791.32,-346.403 1791.52,-357.367 1791.52,-357.367"/>
</g>
<!-- Article -->
<g id="node12" class="node"><title>Article</title>
<path fill="none" stroke="black" d="M523,-527.5C523,-527.5 743,-527.5 743,-527.5 749,-527.5 755,-533.5 755,-539.5 755,-539.5 755,-651.5 755,-651.5 755,-657.5 749,-663.5 743,-663.5 743,-663.5 523,-663.5 523,-663.5 517,-663.5 511,-657.5 511,-651.5 511,-651.5 511,-539.5 511,-539.5 511,-533.5 517,-527.5 523,-527.5"/>
<text text-anchor="middle" x="633" y="-648.3" font-family="Times,serif" font-size="14.00">Article</text>
<polyline fill="none" stroke="black" points="511,-640.5 755,-640.5 "/>
<text text-anchor="start" x="519" y="-625.3" font-family="Times,serif" font-size="14.00">id :integer</text>
<text text-anchor="start" x="519" y="-610.3" font-family="Times,serif" font-size="14.00">title :character varying</text>
<text text-anchor="start" x="519" y="-595.3" font-family="Times,serif" font-size="14.00">body :text</text>
<text text-anchor="start" x="519" y="-580.3" font-family="Times,serif" font-size="14.00">image :character varying</text>
<text text-anchor="start" x="519" y="-565.3" font-family="Times,serif" font-size="14.00">created_at :timestamp without time zone</text>
<text text-anchor="start" x="519" y="-550.3" font-family="Times,serif" font-size="14.00">updated_at :timestamp without time zone</text>
<text text-anchor="start" x="519" y="-535.3" font-family="Times,serif" font-size="14.00">slug :character varying</text>
</g>
<!-- Article&#45;&gt;FriendlyId::Slug -->
<g id="edge8" class="edge"><title>Article&#45;&gt;FriendlyId::Slug</title>
<path fill="none" stroke="#a4c85b" d="M675.795,-520.096C714.186,-453.347 768.335,-359.202 794.166,-314.29"/>
<ellipse fill="none" stroke="#a4c85b" cx="673.618" cy="-523.88" rx="4.00002" ry="4.00002"/>
<polygon fill="#a4c85b" stroke="#a4c85b" points="794.247,-314.15 803.134,-307.725 796.74,-309.815 799.233,-305.481 799.233,-305.481 799.233,-305.481 796.74,-309.815 795.332,-303.238 794.247,-314.15 794.247,-314.15"/>
<text text-anchor="middle" x="730" y="-452.8" font-family="Times,serif" font-size="14.00">slugs</text>
</g>
<!-- Video -->
<g id="node14" class="node"><title>Video</title>
<path fill="none" stroke="black" d="M785,-527.5C785,-527.5 1005,-527.5 1005,-527.5 1011,-527.5 1017,-533.5 1017,-539.5 1017,-539.5 1017,-651.5 1017,-651.5 1017,-657.5 1011,-663.5 1005,-663.5 1005,-663.5 785,-663.5 785,-663.5 779,-663.5 773,-657.5 773,-651.5 773,-651.5 773,-539.5 773,-539.5 773,-533.5 779,-527.5 785,-527.5"/>
<text text-anchor="middle" x="895" y="-648.3" font-family="Times,serif" font-size="14.00">Video</text>
<polyline fill="none" stroke="black" points="773,-640.5 1017,-640.5 "/>
<text text-anchor="start" x="781" y="-625.3" font-family="Times,serif" font-size="14.00">id :integer</text>
<text text-anchor="start" x="781" y="-610.3" font-family="Times,serif" font-size="14.00">title :character varying</text>
<text text-anchor="start" x="781" y="-595.3" font-family="Times,serif" font-size="14.00">summary :character varying</text>
<text text-anchor="start" x="781" y="-580.3" font-family="Times,serif" font-size="14.00">video_url :character varying</text>
<text text-anchor="start" x="781" y="-565.3" font-family="Times,serif" font-size="14.00">created_at :timestamp without time zone</text>
<text text-anchor="start" x="781" y="-550.3" font-family="Times,serif" font-size="14.00">updated_at :timestamp without time zone</text>
<text text-anchor="start" x="781" y="-535.3" font-family="Times,serif" font-size="14.00">slug :character varying</text>
</g>
<!-- Video&#45;&gt;FriendlyId::Slug -->
<g id="edge9" class="edge"><title>Video&#45;&gt;FriendlyId::Slug</title>
<path fill="none" stroke="#4ee5e8" d="M873.845,-519.228C855.252,-453.072 829.24,-360.518 816.556,-315.384"/>
<ellipse fill="none" stroke="#4ee5e8" cx="875.045" cy="-523.496" rx="4.00001" ry="4.00001"/>
<polygon fill="#4ee5e8" stroke="#4ee5e8" points="816.478,-315.108 818.105,-304.264 815.125,-310.295 813.772,-305.481 813.772,-305.481 813.772,-305.481 815.125,-310.295 809.44,-306.699 816.478,-315.108 816.478,-315.108"/>
<text text-anchor="middle" x="872" y="-452.8" font-family="Times,serif" font-size="14.00">slugs</text>
</g>
<!-- Coach&#45;&gt;Merit -->
<g id="edge11" class="edge"><title>Coach&#45;&gt;Merit</title>
<path fill="none" stroke="#170300" d="M336.481,-219.217C352.252,-186.55 371.063,-147.584 386.429,-115.754"/>
<ellipse fill="none" stroke="#170300" cx="334.582" cy="-223.152" rx="4.00002" ry="4.00002"/>
<polygon fill="#170300" stroke="#170300" points="386.525,-115.555 394.925,-108.506 388.699,-111.052 390.873,-106.55 390.873,-106.55 390.873,-106.55 388.699,-111.052 386.82,-104.593 386.525,-115.555 386.525,-115.555"/>
</g>
<!-- Coach&#45;&gt;Partnership -->
<g id="edge10" class="edge"><title>Coach&#45;&gt;Partnership</title>
<path fill="none" stroke="#3f187e" d="M260.789,-219.667C239.436,-186.641 213.864,-147.09 193.098,-114.972"/>
<ellipse fill="none" stroke="#3f187e" cx="263.199" cy="-223.395" rx="4.00002" ry="4.00002"/>
<polygon fill="#3f187e" stroke="#3f187e" points="193.082,-114.947 191.432,-104.106 190.367,-110.748 187.653,-106.55 187.653,-106.55 187.653,-106.55 190.367,-110.748 183.874,-108.993 193.082,-114.947 193.082,-114.947"/>
</g>
<!-- View -->
<g id="node16" class="node"><title>View</title>
<path fill="none" stroke="black" d="M1187,-227C1187,-227 1407,-227 1407,-227 1413,-227 1419,-233 1419,-239 1419,-239 1419,-336 1419,-336 1419,-342 1413,-348 1407,-348 1407,-348 1187,-348 1187,-348 1181,-348 1175,-342 1175,-336 1175,-336 1175,-239 1175,-239 1175,-233 1181,-227 1187,-227"/>
<text text-anchor="middle" x="1297" y="-332.8" font-family="Times,serif" font-size="14.00">View</text>
<polyline fill="none" stroke="black" points="1175,-325 1419,-325 "/>
<text text-anchor="start" x="1183" y="-309.8" font-family="Times,serif" font-size="14.00">id :integer</text>
<text text-anchor="start" x="1183" y="-294.8" font-family="Times,serif" font-size="14.00">viewable_type :character varying</text>
<text text-anchor="start" x="1183" y="-279.8" font-family="Times,serif" font-size="14.00">viewable_id :integer</text>
<text text-anchor="start" x="1183" y="-264.8" font-family="Times,serif" font-size="14.00">views :integer</text>
<text text-anchor="start" x="1183" y="-249.8" font-family="Times,serif" font-size="14.00">created_at :timestamp without time zone</text>
<text text-anchor="start" x="1183" y="-234.8" font-family="Times,serif" font-size="14.00">updated_at :timestamp without time zone</text>
</g>
<!-- ApplicationRecord -->
<g id="node17" class="node"><title>ApplicationRecord</title>
<ellipse fill="none" stroke="black" cx="2671" cy="-595.5" rx="77.1866" ry="18"/>
<text text-anchor="middle" x="2671" y="-591.8" font-family="Times,serif" font-size="14.00">ApplicationRecord</text>
</g>
<!-- Album -->
<g id="node18" class="node"><title>Album</title>
<path fill="none" stroke="black" d="M1047,-535C1047,-535 1267,-535 1267,-535 1273,-535 1279,-541 1279,-547 1279,-547 1279,-644 1279,-644 1279,-650 1273,-656 1267,-656 1267,-656 1047,-656 1047,-656 1041,-656 1035,-650 1035,-644 1035,-644 1035,-547 1035,-547 1035,-541 1041,-535 1047,-535"/>
<text text-anchor="middle" x="1157" y="-640.8" font-family="Times,serif" font-size="14.00">Album</text>
<polyline fill="none" stroke="black" points="1035,-633 1279,-633 "/>
<text text-anchor="start" x="1043" y="-617.8" font-family="Times,serif" font-size="14.00">id :integer</text>
<text text-anchor="start" x="1043" y="-602.8" font-family="Times,serif" font-size="14.00">title :character varying</text>
<text text-anchor="start" x="1043" y="-587.8" font-family="Times,serif" font-size="14.00">cover_photo :character varying</text>
<text text-anchor="start" x="1043" y="-572.8" font-family="Times,serif" font-size="14.00">created_at :timestamp without time zone</text>
<text text-anchor="start" x="1043" y="-557.8" font-family="Times,serif" font-size="14.00">updated_at :timestamp without time zone</text>
<text text-anchor="start" x="1043" y="-542.8" font-family="Times,serif" font-size="14.00">slug :character varying</text>
</g>
<!-- Album&#45;&gt;Photo -->
<g id="edge14" class="edge"><title>Album&#45;&gt;Photo</title>
<path fill="none" stroke="#d7c4bd" d="M1130.1,-527.019C1109.06,-474.25 1080.05,-401.486 1059.62,-350.243"/>
<ellipse fill="none" stroke="#d7c4bd" cx="1131.71" cy="-531.058" rx="4.00001" ry="4.00001"/>
<polygon fill="#d7c4bd" stroke="#d7c4bd" points="1059.61,-350.224 1060.09,-339.268 1057.76,-345.579 1055.91,-340.935 1055.91,-340.935 1055.91,-340.935 1057.76,-345.579 1051.73,-342.601 1059.61,-350.224 1059.61,-350.224"/>
</g>
<!-- Album&#45;&gt;View -->
<g id="edge13" class="edge"><title>Album&#45;&gt;View</title>
<path fill="none" stroke="#95478b" d="M1187.72,-527.361C1211.07,-476.327 1243.04,-406.446 1266.37,-355.457"/>
<ellipse fill="none" stroke="#95478b" cx="1185.99" cy="-531.136" rx="4.00002" ry="4.00002"/>
<ellipse fill="#95478b" stroke="#95478b" cx="1268.08" cy="-351.713" rx="4.00002" ry="4.00002"/>
</g>
<!-- Album&#45;&gt;FriendlyId::Slug -->
<g id="edge12" class="edge"><title>Album&#45;&gt;FriendlyId::Slug</title>
<path fill="none" stroke="#ae5fa7" d="M1089.26,-529.303C1069.78,-512.564 1047.87,-495.493 1026,-482 975.983,-451.144 949.349,-468.38 904,-431 865.078,-398.918 836.024,-346.78 820.851,-315.255"/>
<ellipse fill="none" stroke="#ae5fa7" cx="1092.47" cy="-532.098" rx="4.00002" ry="4.00002"/>
<polygon fill="#ae5fa7" stroke="#ae5fa7" points="820.661,-314.851 820.492,-303.886 818.54,-310.323 816.418,-305.796 816.418,-305.796 816.418,-305.796 818.54,-310.323 812.343,-307.706 820.661,-314.851 820.661,-314.851"/>
<text text-anchor="middle" x="998" y="-452.8" font-family="Times,serif" font-size="14.00">slugs</text>
</g>
</g>
</svg>
